<svg width="144" height="35" viewBox="0 0 144 35" fill="none" xmlns="http://www.w3.org/2000/svg">
<path d="M8.96 34.1C7.01333 34.1 5.38667 33.7267 4.08 32.98C2.77333 32.2067 1.78667 31.0867 1.12 29.62C0.453333 28.1533 0.0800001 26.3533 0 24.22L5.08 23.22C5.13333 24.4733 5.28 25.58 5.52 26.54C5.78667 27.5 6.17333 28.2467 6.68 28.78C7.21333 29.2867 7.90667 29.54 8.76 29.54C9.72 29.54 10.4 29.26 10.8 28.7C11.2 28.1133 11.4 27.38 11.4 26.5C11.4 25.0867 11.08 23.9267 10.44 23.02C9.8 22.1133 8.94667 21.2067 7.88 20.3L3.8 16.7C2.65333 15.7133 1.73333 14.62 1.04 13.42C0.373333 12.1933 0.0400001 10.6867 0.0400001 8.9C0.0400001 6.34 0.786667 4.36667 2.28 2.98C3.77333 1.59334 5.81333 0.900002 8.4 0.900002C9.92 0.900002 11.1867 1.14 12.2 1.62C13.2133 2.07334 14.0133 2.71334 14.6 3.54C15.2133 4.36667 15.6667 5.31334 15.96 6.38C16.2533 7.42 16.44 8.52667 16.52 9.7L11.48 10.58C11.4267 9.56667 11.3067 8.66 11.12 7.86C10.96 7.06 10.6533 6.43334 10.2 5.98C9.77333 5.52667 9.13333 5.3 8.28 5.3C7.4 5.3 6.72 5.59334 6.24 6.18C5.78667 6.74 5.56 7.44667 5.56 8.3C5.56 9.39334 5.78667 10.3 6.24 11.02C6.69333 11.7133 7.34667 12.4333 8.2 13.18L12.24 16.74C13.5733 17.86 14.7067 19.18 15.64 20.7C16.6 22.1933 17.08 24.0067 17.08 26.14C17.08 27.6867 16.7333 29.06 16.04 30.26C15.3733 31.46 14.4267 32.4067 13.2 33.1C12 33.7667 10.5867 34.1 8.96 34.1Z" fill="white"/>
<path d="M20.5656 33.66V1.26H26.4856V15.5L32.8856 1.26H38.5256L32.3256 15.74L39.1656 33.66H33.2856L27.8456 18.9L26.4856 21.38V33.66H20.5656Z" fill="white"/>
<path d="M50.7347 34.1C48.3347 34.1 46.468 33.66 45.1347 32.78C43.8014 31.9 42.8814 30.6467 42.3747 29.02C41.868 27.3933 41.6147 25.4467 41.6147 23.18V1.26H47.3747V23.86C47.3747 24.8733 47.4414 25.8333 47.5747 26.74C47.708 27.62 48.0147 28.34 48.4947 28.9C49.0014 29.4333 49.748 29.7 50.7347 29.7C51.7747 29.7 52.5214 29.4333 52.9747 28.9C53.4547 28.34 53.7614 27.62 53.8947 26.74C54.0547 25.8333 54.1347 24.8733 54.1347 23.86V1.26H59.8547V23.18C59.8547 25.4467 59.6014 27.3933 59.0947 29.02C58.588 30.6467 57.668 31.9 56.3347 32.78C55.028 33.66 53.1614 34.1 50.7347 34.1Z" fill="white"/>
<path d="M64.5109 33.66V1.26H77.8309V5.34H70.4309V14.78H76.4709V18.9H70.4309V33.66H64.5109Z" fill="white"/>
<path d="M77.5447 33.66V28.18H82.8247V33.66H77.5447Z" fill="white"/>
<path d="M89.9006 33.66L83.3806 1.26H88.6206L92.9006 24.18L96.9006 1.26H102.261L95.7406 33.66H89.9006Z" fill="white"/>
<path d="M105.566 33.66V1.26H115.086C117.032 1.26 118.606 1.62 119.806 2.34C121.032 3.06 121.926 4.11334 122.486 5.5C123.072 6.86 123.366 8.51334 123.366 10.46C123.366 12.5667 123.006 14.2733 122.286 15.58C121.566 16.86 120.552 17.7933 119.246 18.38C117.966 18.9667 116.446 19.26 114.686 19.26H111.486V33.66H105.566ZM111.486 15.1H113.726C114.792 15.1 115.619 14.9533 116.206 14.66C116.819 14.34 117.232 13.8467 117.446 13.18C117.686 12.4867 117.806 11.5667 117.806 10.42C117.806 9.24667 117.712 8.3 117.526 7.58C117.366 6.83334 116.992 6.28667 116.406 5.94C115.846 5.59334 114.952 5.42 113.726 5.42H111.486V15.1Z" fill="white"/>
<path d="M126.659 33.66V1.26H130.779L138.659 19.74V1.26H143.539V33.66H139.619L131.699 14.3V33.66H126.659Z" fill="white"/>
</svg>
