<svg width="29" height="17" viewBox="0 0 29 17" fill="none" xmlns="http://www.w3.org/2000/svg">
<path d="M28.7416 14.9856C28.6636 14.855 28.1815 13.8073 25.8613 11.6539C23.4324 9.39901 23.7587 9.76517 26.6842 5.86619C28.4661 3.49164 29.1784 2.04153 28.9555 1.42161C28.7434 0.83069 27.4329 0.986576 27.4329 0.986576L23.0753 1.01195C23.0753 1.01195 22.7526 0.96845 22.5116 1.11165C22.2777 1.25303 22.1273 1.57931 22.1273 1.57931C22.1273 1.57931 21.4367 3.41732 20.5159 4.97981C18.5745 8.27699 17.7969 8.451 17.4797 8.24618C16.742 7.76945 16.9268 6.32841 16.9268 5.30608C16.9268 2.11041 17.4108 0.778123 15.9825 0.433723C15.5075 0.319527 15.1595 0.243396 13.9469 0.230708C12.3916 0.214394 11.0738 0.236145 10.3289 0.600485C9.83219 0.843378 9.44973 1.38536 9.68356 1.41617C9.97176 1.45424 10.6243 1.592 10.9705 2.06328C11.4182 2.67051 11.4019 4.03724 11.4019 4.03724C11.4019 4.03724 11.6593 7.79846 10.802 8.26612C10.2128 8.58695 9.40622 7.93259 7.67516 4.93993C6.78878 3.40826 6.11811 1.71344 6.11811 1.71344C6.11811 1.71344 5.98941 1.39804 5.7592 1.22947C5.48006 1.02464 5.08853 0.959387 5.08853 0.959387L0.944848 0.984764C0.944848 0.984764 0.323115 1.00289 0.0947227 1.27297C-0.108292 1.51405 0.078409 2.01071 0.078409 2.01071C0.078409 2.01071 3.32302 9.60021 6.99542 13.4267C10.3651 16.9341 14.1898 16.7039 14.1898 16.7039H15.9226C15.9226 16.7039 16.4465 16.6459 16.7129 16.3577C16.9595 16.0931 16.9504 15.5964 16.9504 15.5964C16.9504 15.5964 16.916 13.2708 17.9963 12.9282C19.0603 12.5911 20.427 15.1759 21.8753 16.171C22.9702 16.9233 23.8022 16.7583 23.8022 16.7583L27.6758 16.7039C27.6758 16.7039 29.7023 16.5789 28.7416 14.9856Z" fill="white"/>
</svg>
